<svg width="17" height="32" viewBox="0 0 17 32" fill="none" xmlns="http://www.w3.org/2000/svg">
<path d="M8.125 31.5694C7.64353 31.5694 7.24307 31.4166 6.92363 31.1111C6.60418 30.8056 6.44446 30.4028 6.44446 29.9028V27.9028C5.02779 27.6528 3.83567 27.1435 2.86808 26.375C1.90047 25.6065 1.12964 24.625 0.555585 23.4305C0.314835 22.9954 0.326403 22.5208 0.590292 22.0069C0.854181 21.4931 1.24538 21.1204 1.76388 20.8889C2.19907 20.7593 2.64815 20.7778 3.11113 20.9444C3.57407 21.1111 3.98147 21.4537 4.33333 21.9722C4.79628 22.7593 5.37961 23.3333 6.08333 23.6944C6.78703 24.0556 7.56481 24.2361 8.41667 24.2361C9.60186 24.2361 10.5417 23.9792 11.2361 23.4653C11.9306 22.9514 12.2778 22.2454 12.2778 21.3472C12.2778 20.3657 11.9097 19.5648 11.1736 18.9444C10.4375 18.324 9.01853 17.6944 6.91667 17.0555C4.84261 16.4537 3.30789 15.5648 2.3125 14.3889C1.31714 13.2129 0.819459 11.8009 0.819459 10.1528C0.819459 8.61573 1.29863 7.28934 2.25696 6.17361C3.21529 5.05786 4.61113 4.34259 6.44446 4.02778V2.06945C6.44446 1.58795 6.60418 1.19442 6.92363 0.888864C7.24307 0.583336 7.64353 0.430573 8.125 0.430573C8.58797 0.430573 8.98149 0.583336 9.30554 0.888864C9.62963 1.19442 9.79167 1.58795 9.79167 2.06945V4.02778C10.7546 4.24073 11.6643 4.58795 12.5208 5.06945C13.3773 5.55092 14.0879 6.19906 14.6528 7.01386C14.9305 7.43981 14.9745 7.91203 14.7847 8.43053C14.5949 8.94906 14.2176 9.32406 13.6528 9.55553C13.2732 9.71292 12.8495 9.72217 12.382 9.58328C11.9143 9.44439 11.4398 9.16199 10.9583 8.73607C10.5972 8.41202 10.1713 8.15045 9.68058 7.95136C9.18983 7.75228 8.64815 7.65274 8.05554 7.65274C6.92593 7.65274 6.08797 7.87034 5.54167 8.30553C4.99536 8.74073 4.72221 9.31943 4.72221 10.0417C4.72221 10.838 5.04165 11.5139 5.68054 12.0694C6.31943 12.625 7.79629 13.25 10.1111 13.9444C12.1018 14.6019 13.6018 15.5232 14.6111 16.7083C15.6204 17.8935 16.1435 19.3935 16.1805 21.2083C16.1713 23.125 15.6088 24.6528 14.493 25.7917C13.3773 26.9305 11.8102 27.6574 9.79167 27.9722V29.9028C9.79167 30.4028 9.62963 30.8056 9.30554 31.1111C8.98149 31.4166 8.58797 31.5694 8.125 31.5694Z" fill="black"/>
</svg>
