<svg width="40" height="23" viewBox="0 0 40 23" fill="none" xmlns="http://www.w3.org/2000/svg">
<path d="M1.63886 22.5833C0.986087 22.5833 0.452532 22.3762 0.0381982 21.9618C-0.376163 21.5475 -0.583344 21.0075 -0.583344 20.3418V19.6384C-0.583344 18.3302 0.0509204 17.281 1.31945 16.4908C2.58795 15.7007 4.27775 15.3056 6.38886 15.3056H6.81874C6.96913 15.3056 7.09437 15.2963 7.19445 15.2778C6.87037 15.8797 6.61805 16.5163 6.43749 17.1877C6.25696 17.8591 6.1667 18.5743 6.1667 19.3333V22.5833H1.63886ZM11.6389 22.5833C10.9861 22.5833 10.4525 22.3762 10.0382 21.9618C9.62384 21.5475 9.41666 21.006 9.41666 20.3374V19.3466C9.41666 17.3391 10.3855 15.7239 12.3232 14.501C14.261 13.2781 16.8189 12.6667 19.9971 12.6667C23.1564 12.6667 25.7106 13.2769 27.6597 14.4975C29.6088 15.718 30.5833 17.3301 30.5833 19.3338V20.3516C30.5833 21.0107 30.3763 21.5475 29.9622 21.9618C29.548 22.3762 29.0236 22.5833 28.3889 22.5833H11.6389ZM33.8333 22.5833V19.316C33.8333 18.592 33.7476 17.8814 33.5764 17.1844C33.4051 16.4874 33.1574 15.8494 32.8333 15.2703C32.9149 15.2846 33.0308 15.294 33.1812 15.2986C33.3316 15.3033 33.4757 15.3056 33.6134 15.3056C35.7137 15.3056 37.4004 15.6989 38.6736 16.4855C39.9468 17.2721 40.5833 18.3264 40.5833 19.6485V20.3502C40.5833 21.0102 40.3763 21.5475 39.9622 21.9618C39.548 22.3762 39.0236 22.5833 38.3889 22.5833H33.8333ZM19.9981 16.4305C18.453 16.4305 17.1319 16.6366 16.0347 17.0486C14.9374 17.4606 14.2268 18.0139 13.9027 18.7083V18.8195H26.0972V18.6806C25.7917 18.0046 25.0851 17.4606 23.9773 17.0486C22.8695 16.6366 21.5431 16.4305 19.9981 16.4305ZM6.38861 14.0417C5.43509 14.0417 4.62731 13.7126 3.96528 13.0543C3.30323 12.3961 2.9722 11.5828 2.9722 10.6144C2.9722 9.6678 3.306 8.86579 3.97361 8.20837C4.64123 7.55099 5.4491 7.22229 6.39724 7.22229C7.34535 7.22229 8.15506 7.55222 8.82636 8.21208C9.49764 8.87194 9.83328 9.6798 9.83328 10.6357C9.83328 11.5916 9.49756 12.3982 8.82611 13.0556C8.15467 13.713 7.34217 14.0417 6.38861 14.0417ZM33.6109 14.0417C32.6573 14.0417 31.8495 13.7126 31.1875 13.0543C30.5255 12.3961 30.1944 11.5828 30.1944 10.6144C30.1944 9.6678 30.5283 8.86579 31.1959 8.20837C31.8635 7.55099 32.6713 7.22229 33.6194 7.22229C34.5676 7.22229 35.3773 7.55222 36.0486 8.21208C36.7199 8.87194 37.0555 9.6798 37.0555 10.6357C37.0555 11.5916 36.7198 12.3982 36.0484 13.0556C35.3769 13.713 34.5644 14.0417 33.6109 14.0417ZM19.9869 11.4306C18.4679 11.4306 17.1597 10.882 16.0625 9.78475C14.9653 8.68753 14.4167 7.37503 14.4167 5.84725C14.4167 4.31947 14.9696 3.00697 16.0756 1.90975C17.1815 0.812527 18.494 0.263916 20.0131 0.263916C21.5321 0.263916 22.8403 0.816888 23.9375 1.92283C25.0347 3.02875 25.5833 4.3456 25.5833 5.87337C25.5833 7.40115 25.0303 8.70929 23.9244 9.79779C22.8185 10.8863 21.506 11.4306 19.9869 11.4306ZM19.9932 3.98612C19.4792 3.98612 19.0463 4.16918 18.6944 4.53529C18.3425 4.90143 18.1666 5.34183 18.1666 5.8565C18.1666 6.38736 18.3476 6.8241 18.7095 7.16671C19.0714 7.50929 19.5066 7.68058 20.0151 7.68058C20.5236 7.68058 20.9583 7.50344 21.3194 7.14917C21.6806 6.79486 21.8611 6.35967 21.8611 5.84358C21.8611 5.3275 21.6783 4.8889 21.3126 4.52779C20.9469 4.16668 20.5071 3.98612 19.9932 3.98612Z" fill="black"/>
</svg>
