<svg width="33" height="35" viewBox="0 0 33 35" fill="none" xmlns="http://www.w3.org/2000/svg">
<path d="M20.6945 9.81947C20.3611 9.41205 19.9468 9.1065 19.4514 8.9028C18.956 8.69908 18.4213 8.59722 17.8472 8.59722C17.2361 8.59722 16.7037 8.7037 16.25 8.91668C15.7963 9.12965 15.3889 9.40743 15.0278 9.75001L11.9028 6.61114C12.4306 6.0278 13.0255 5.56022 13.6875 5.20839C14.3495 4.85652 15.0972 4.60652 15.9306 4.45839V2.80559C15.9306 2.25929 16.1181 1.79632 16.4931 1.41668C16.8681 1.03707 17.3194 0.84726 17.8472 0.84726C18.375 0.84726 18.831 1.03707 19.2153 1.41668C19.5995 1.79632 19.7916 2.25929 19.7916 2.80559V4.45839C20.5879 4.53244 21.3981 4.78244 22.2222 5.20839C23.0463 5.6343 23.7639 6.29171 24.375 7.18059C24.7917 7.7454 24.9074 8.36346 24.7222 9.03476C24.537 9.70604 24.0694 10.1898 23.3194 10.4861C22.9491 10.6806 22.5255 10.7153 22.0486 10.5903C21.5718 10.4653 21.1204 10.2084 20.6945 9.81947ZM30.2083 34.1806L23.9167 27.9444C23.3704 28.3982 22.7384 28.757 22.0208 29.0208C21.3032 29.2847 20.5602 29.4583 19.7916 29.5417V31.1806C19.7916 31.6991 19.5995 32.1551 19.2153 32.5486C18.831 32.9421 18.375 33.1389 17.8472 33.1389C17.3194 33.1389 16.8681 32.9421 16.4931 32.5486C16.1181 32.1551 15.9306 31.6991 15.9306 31.1806V29.4861C14.7917 29.338 13.6944 28.8634 12.6389 28.0625C11.5833 27.2616 10.75 26.2778 10.1389 25.1111C9.79632 24.5926 9.75465 24.0394 10.0139 23.4514C10.2732 22.8634 10.6574 22.4676 11.1667 22.2639C11.7408 22.051 12.2986 22.051 12.8403 22.2639C13.3819 22.4769 13.8704 22.838 14.3056 23.3472C14.6944 24.0509 15.213 24.5625 15.8611 24.882C16.5093 25.2014 17.2639 25.3611 18.125 25.3611C18.588 25.3611 19.0394 25.3056 19.4792 25.1945C19.919 25.0834 20.2917 24.8982 20.5973 24.6389L0.819469 4.81943C0.495385 4.5139 0.333344 4.12965 0.333344 3.66668C0.333344 3.2037 0.495385 2.81019 0.819469 2.48614C1.12502 2.19911 1.52316 2.05559 2.01389 2.05559C2.50464 2.05559 2.91205 2.19911 3.23614 2.48614L32.5417 31.7917C32.6898 32.0139 32.7986 32.2199 32.8681 32.4097C32.9375 32.5996 32.9722 32.7963 32.9722 33C32.9722 33.2037 32.9375 33.4167 32.8681 33.6389C32.7986 33.8611 32.6898 34.0417 32.5417 34.1806C32.2176 34.5046 31.8241 34.6667 31.3611 34.6667C30.8982 34.6667 30.5139 34.5046 30.2083 34.1806Z" fill="black"/>
</svg>
